<svg width="1720" height="1020" viewBox="0 0 1720 1020" fill="none" xmlns="http://www.w3.org/2000/svg">
<g clip-path="url(#clip0_210_97)">
<path d="M1525.45 349.453C1524.86 349.175 1524.19 349.058 1523.5 349.15L1523.49 349.153L1512.67 351.822L1510.08 340.838C1509.91 340.142 1509.48 339.584 1508.92 339.236C1508.36 338.89 1507.68 338.755 1506.99 338.917C1506.98 338.919 1506.97 338.923 1506.96 338.925C1505.95 339.078 1504.79 339.303 1503.62 339.578C1491.91 342.341 1482.37 349.486 1476.34 358.869L1476.35 358.852C1466.78 353.164 1455.06 351.031 1443.35 353.794C1442.18 354.069 1441.04 354.388 1439.92 354.747L1440.07 354.702C1439.38 354.884 1438.82 355.306 1438.46 355.855C1438.11 356.418 1437.97 357.11 1438.14 357.806L1440.73 368.79L1429.86 371.238C1429.85 371.241 1429.83 371.244 1429.82 371.247C1429.13 371.409 1428.58 371.833 1428.24 372.387C1427.89 372.95 1427.75 373.647 1427.91 374.346L1446.85 454.642C1447.18 456.027 1448.57 456.882 1449.95 456.556C1450.39 456.453 1450.77 456.246 1451.08 455.968L1451.07 455.978C1456.55 450.698 1463.69 446.654 1471.89 444.721C1480.06 442.793 1488.24 443.212 1495.72 445.537L1495.49 445.472C1495.71 445.54 1495.95 445.577 1496.2 445.575L1496.22 445.574C1496.32 445.575 1496.43 445.57 1496.55 445.553L1496.55 445.552L1496.57 445.549L1496.8 445.508L1496.84 445.484C1497.28 445.378 1497.66 445.164 1497.97 444.879L1497.95 444.889C1503.43 439.628 1510.56 435.601 1518.73 433.673C1526.93 431.74 1535.12 432.161 1542.62 434.501L1542.38 434.436C1542.77 434.549 1543.21 434.567 1543.64 434.464C1544.12 434.352 1544.53 434.11 1544.85 433.787L1544.84 433.796C1545.47 433.178 1545.77 432.267 1545.55 431.36L1526.61 351.065C1526.45 350.369 1526.01 349.804 1525.45 349.457L1525.45 349.453ZM1443.77 359.183C1444.31 359.022 1444.96 358.852 1445.62 358.698C1456.13 356.218 1466.65 358.49 1474.93 364.123L1474.96 364.144L1492.19 437.203C1483.33 433.064 1472.93 431.753 1462.54 434.203C1462.18 434.288 1461.83 434.376 1461.47 434.47L1461.52 434.457L1443.77 359.183ZM1450.93 449.418L1433.53 375.696L1441.92 373.807L1457.09 438.1C1457.41 439.482 1458.8 440.342 1460.18 440.019C1460.47 439.943 1460.82 439.858 1461.17 439.776C1467.3 438.328 1473.44 437.968 1479.38 438.572L1478.98 438.547C1476.44 438.687 1473.57 439.103 1470.71 439.779C1463.11 441.57 1456.34 445.001 1450.67 449.61L1450.93 449.414L1450.93 449.418ZM1479.98 362.957C1484.88 354.188 1493.28 347.45 1503.79 344.97C1504.44 344.816 1505.1 344.678 1505.75 344.56L1505.66 344.578L1523.42 419.849C1523.11 419.914 1522.75 419.995 1522.39 420.08C1512.01 422.53 1503.29 428.352 1497.13 436.108L1497.21 436.016L1479.98 362.957ZM1539.59 428.502C1532.77 427.013 1525.17 426.968 1517.58 428.7L1517.56 428.704C1514.7 429.379 1511.96 430.297 1509.36 431.429L1509.64 431.319C1514.33 428.325 1519.98 425.901 1526.12 424.452C1526.47 424.371 1526.81 424.292 1527.16 424.219L1527.11 424.23C1528.49 423.901 1529.34 422.516 1529.02 421.131L1513.85 356.837L1522.19 354.78L1539.59 428.502Z" fill="#515050" fill-opacity="0.06"/>
<path d="M275.316 872.411C274.731 872.132 274.057 872.016 273.369 872.108L273.356 872.111L262.535 874.78L259.944 863.796C259.78 863.1 259.348 862.542 258.785 862.194C258.23 861.848 257.545 861.713 256.859 861.875C256.849 861.877 256.836 861.88 256.826 861.883C255.817 862.036 254.655 862.261 253.49 862.535C241.777 865.299 232.242 872.443 226.212 881.827L226.222 881.81C216.651 876.121 204.927 873.989 193.214 876.752C192.05 877.026 190.907 877.346 189.787 877.705L189.935 877.66C189.251 877.842 188.69 878.264 188.325 878.813C187.977 879.375 187.84 880.068 188.005 880.764L190.596 891.748L179.723 894.196C179.713 894.199 179.7 894.202 179.686 894.205C179 894.367 178.447 894.79 178.104 895.344C177.753 895.908 177.614 896.604 177.779 897.304L196.722 977.6C197.049 978.985 198.437 979.84 199.822 979.513C200.257 979.411 200.639 979.204 200.952 978.926L200.94 978.936C206.419 973.655 213.56 969.612 221.753 967.679C229.927 965.75 238.106 966.169 245.585 968.495L245.354 968.429C245.575 968.497 245.82 968.535 246.07 968.532L246.088 968.532C246.187 968.533 246.299 968.528 246.415 968.511L246.422 968.51L246.435 968.506L246.669 968.465L246.709 968.442C247.143 968.336 247.527 968.122 247.835 967.837L247.823 967.847C253.296 962.586 260.427 958.559 268.6 956.63C276.794 954.697 284.992 955.119 292.484 957.459L292.253 957.394C292.64 957.507 293.075 957.525 293.51 957.422C293.985 957.31 294.398 957.068 294.717 956.745L294.709 956.754C295.34 956.136 295.637 955.225 295.423 954.318L276.48 874.022C276.316 873.327 275.882 872.761 275.313 872.415L275.316 872.411ZM193.634 882.141C194.183 881.98 194.828 881.81 195.484 881.656C205.996 879.176 216.516 881.448 224.796 887.081L224.825 887.102L242.061 960.161C233.198 956.022 222.798 954.71 212.41 957.161C212.052 957.246 211.695 957.333 211.339 957.428L211.392 957.415L193.634 882.141ZM200.794 972.376L183.403 898.654L191.786 896.765L206.954 961.058C207.28 962.44 208.666 963.3 210.049 962.977C210.341 962.901 210.689 962.815 211.037 962.733C217.172 961.286 223.311 960.926 229.252 961.53L228.851 961.505C226.309 961.645 223.441 962.06 220.573 962.737C212.982 964.528 206.209 967.959 200.536 972.567L200.797 972.372L200.794 972.376ZM229.843 885.915C234.75 877.146 243.148 870.407 253.66 867.927C254.313 867.773 254.969 867.636 255.619 867.518L255.528 867.536L273.286 942.807C272.98 942.872 272.621 942.953 272.263 943.037C261.874 945.488 253.157 951.31 247.002 959.066L247.079 958.974L229.843 885.915ZM289.454 951.46C282.636 949.971 275.043 949.926 267.448 951.657L267.428 951.662C264.567 952.337 261.831 953.254 259.231 954.387L259.505 954.277C264.199 951.283 269.85 948.859 275.989 947.41C276.334 947.329 276.683 947.25 277.025 947.176L276.975 947.188C278.356 946.859 279.213 945.474 278.886 944.089L263.718 879.795L272.063 877.738L289.454 951.46Z" fill="#515050" fill-opacity="0.06"/>
<path d="M1564.57 163.719L1545.79 144.937C1544.87 144.021 1543.66 143.516 1542.36 143.516C1541.66 143.516 1540.98 143.669 1540.36 143.951L1535.54 139.128C1542.35 133.023 1546.64 124.164 1546.64 114.319C1546.64 95.9469 1531.69 81 1513.32 81C1494.95 81 1480 95.9469 1480 114.319C1480 132.692 1494.95 147.639 1513.32 147.639C1520.77 147.639 1527.65 145.183 1533.2 141.039L1538.14 145.977C1537.73 146.698 1537.51 147.515 1537.51 148.367C1537.51 149.663 1538.01 150.881 1538.93 151.797L1557.71 170.579C1558.63 171.495 1559.85 172 1561.14 172C1562.44 172 1563.66 171.495 1564.57 170.579C1565.49 169.663 1565.99 168.445 1565.99 167.149C1565.99 165.853 1565.49 164.635 1564.57 163.719ZM1483.16 114.319C1483.16 97.688 1496.69 84.1575 1513.32 84.1575C1529.95 84.1575 1543.48 97.688 1543.48 114.319C1543.48 130.951 1529.95 144.481 1513.32 144.481C1496.69 144.481 1483.16 130.951 1483.16 114.319ZM1562.34 168.346C1562.02 168.666 1561.59 168.843 1561.14 168.843C1560.69 168.843 1560.26 168.666 1559.94 168.347L1541.16 149.564C1540.84 149.244 1540.67 148.819 1540.67 148.367C1540.67 147.914 1540.84 147.489 1541.16 147.169C1541.48 146.849 1541.91 146.673 1542.36 146.673C1542.81 146.673 1543.24 146.849 1543.56 147.17L1562.34 165.951C1562.66 166.271 1562.84 166.696 1562.84 167.148C1562.84 167.601 1562.66 168.026 1562.34 168.346Z" fill="#515050" fill-opacity="0.06"/>
<path d="M1514.53 90.1568C1521.93 90.1568 1536.34 98.2436 1536.34 113.067C1536.34 113.939 1537.05 114.646 1537.92 114.646C1538.79 114.646 1539.5 113.939 1539.5 113.067C1539.5 105.632 1536.21 98.7357 1530.24 93.6492C1525.49 89.6094 1519.33 86.9993 1514.53 86.9993C1513.66 86.9993 1512.95 87.7061 1512.95 88.578C1512.95 89.45 1513.66 90.1568 1514.53 90.1568Z" fill="#515050" fill-opacity="0.06"/>
<path d="M210.572 681.719L191.79 662.937C190.874 662.021 189.656 661.516 188.36 661.516C187.657 661.516 186.98 661.669 186.359 661.951L181.536 657.128C188.346 651.023 192.639 642.164 192.639 632.319C192.639 613.947 177.692 599 159.32 599C140.947 599 126 613.947 126 632.319C126 650.692 140.947 665.639 159.32 665.639C166.766 665.639 173.65 663.183 179.204 659.039L184.141 663.977C183.732 664.698 183.509 665.515 183.509 666.367C183.509 667.663 184.014 668.881 184.93 669.797L203.712 688.579C204.628 689.495 205.846 690 207.142 690C208.438 690 209.656 689.495 210.573 688.579C211.489 687.663 211.993 686.445 211.993 685.149C211.993 683.853 211.489 682.635 210.572 681.719ZM129.157 632.319C129.157 615.688 142.688 602.157 159.319 602.157C175.951 602.157 189.482 615.688 189.482 632.319C189.482 648.951 175.951 662.481 159.319 662.481C142.688 662.481 129.157 648.951 129.157 632.319ZM208.34 686.346C208.02 686.666 207.594 686.843 207.142 686.843C206.689 686.843 206.264 686.666 205.945 686.347L187.163 667.564C186.843 667.244 186.667 666.819 186.667 666.367C186.667 665.914 186.843 665.489 187.163 665.169C187.483 664.849 187.908 664.673 188.36 664.673C188.812 664.673 189.237 664.849 189.558 665.17L208.34 683.951C208.66 684.271 208.836 684.696 208.836 685.148C208.836 685.601 208.66 686.026 208.34 686.346Z" fill="#515050" fill-opacity="0.06"/>
<path d="M160.531 608.157C167.933 608.157 182.341 616.244 182.341 631.067C182.341 631.939 183.048 632.646 183.92 632.646C184.792 632.646 185.499 631.939 185.499 631.067C185.499 623.632 182.21 616.736 176.238 611.649C171.494 607.609 165.329 604.999 160.531 604.999C159.659 604.999 158.952 605.706 158.952 606.578C158.952 607.45 159.659 608.157 160.531 608.157Z" fill="#515050" fill-opacity="0.06"/>
<path d="M1758.57 681.719L1739.79 662.937C1738.87 662.021 1737.66 661.516 1736.36 661.516C1735.66 661.516 1734.98 661.669 1734.36 661.951L1729.54 657.128C1736.35 651.023 1740.64 642.164 1740.64 632.319C1740.64 613.947 1725.69 599 1707.32 599C1688.95 599 1674 613.947 1674 632.319C1674 650.692 1688.95 665.639 1707.32 665.639C1714.77 665.639 1721.65 663.183 1727.2 659.039L1732.14 663.977C1731.73 664.698 1731.51 665.515 1731.51 666.367C1731.51 667.663 1732.01 668.881 1732.93 669.797L1751.71 688.579C1752.63 689.495 1753.85 690 1755.14 690C1756.44 690 1757.66 689.495 1758.57 688.579C1759.49 687.663 1759.99 686.445 1759.99 685.149C1759.99 683.853 1759.49 682.635 1758.57 681.719ZM1677.16 632.319C1677.16 615.688 1690.69 602.157 1707.32 602.157C1723.95 602.157 1737.48 615.688 1737.48 632.319C1737.48 648.951 1723.95 662.481 1707.32 662.481C1690.69 662.481 1677.16 648.951 1677.16 632.319ZM1756.34 686.346C1756.02 686.666 1755.59 686.843 1755.14 686.843C1754.69 686.843 1754.26 686.666 1753.94 686.347L1735.16 667.564C1734.84 667.244 1734.67 666.819 1734.67 666.367C1734.67 665.914 1734.84 665.489 1735.16 665.169C1735.48 664.849 1735.91 664.673 1736.36 664.673C1736.81 664.673 1737.24 664.849 1737.56 665.17L1756.34 683.951C1756.66 684.271 1756.84 684.696 1756.84 685.148C1756.84 685.601 1756.66 686.026 1756.34 686.346Z" fill="#515050" fill-opacity="0.06"/>
<path d="M1708.53 608.157C1715.93 608.157 1730.34 616.244 1730.34 631.067C1730.34 631.939 1731.05 632.646 1731.92 632.646C1732.79 632.646 1733.5 631.939 1733.5 631.067C1733.5 623.632 1730.21 616.736 1724.24 611.649C1719.49 607.609 1713.33 604.999 1708.53 604.999C1707.66 604.999 1706.95 605.706 1706.95 606.578C1706.95 607.45 1707.66 608.157 1708.53 608.157Z" fill="#515050" fill-opacity="0.06"/>
<path d="M1466.1 881.563C1455.67 878.382 1444.63 879.472 1435.03 884.632C1415.42 895.17 1407.95 919.749 1418.39 939.424C1423.24 948.562 1431.3 955.44 1441.08 958.792C1451.59 962.394 1460.15 969.632 1465.19 979.186C1465.23 979.259 1468.47 985.356 1468.47 985.356C1469.93 988.137 1473.39 989.206 1476.17 987.738L1477.85 986.853L1479.92 990.785C1481.39 993.566 1484.85 994.635 1487.63 993.167L1495.49 989.016C1498.27 987.549 1499.34 984.092 1497.88 981.311L1495.8 977.379L1497.48 976.493C1500.26 975.025 1501.33 971.569 1499.86 968.788C1499.86 968.788 1496.64 962.664 1496.6 962.591C1491.52 952.966 1490.36 941.898 1493.32 931.426C1496.16 921.353 1495.04 910.705 1490.15 901.445C1485.07 891.805 1476.52 884.744 1466.1 881.563ZM1493.39 983.68C1493.55 983.986 1493.43 984.367 1493.12 984.529L1485.26 988.679C1484.95 988.841 1484.57 988.724 1484.41 988.417L1482.34 984.485L1491.31 979.748L1493.39 983.68ZM1495.11 972.006L1473.8 983.251C1473.5 983.412 1473.12 983.295 1472.95 982.988L1470.88 979.056L1493.3 967.224L1495.37 971.157C1495.53 971.463 1495.42 971.844 1495.11 972.006ZM1468.52 954.19L1448.57 932.565C1449.55 932.52 1450.74 932.303 1452.21 931.528C1454.36 930.393 1455.19 929.068 1455.8 928.1C1456.26 927.367 1456.51 926.964 1457.45 926.466C1458.4 925.967 1458.87 925.986 1459.74 926.021C1460.88 926.066 1462.44 926.129 1464.59 924.993C1466.06 924.218 1466.91 923.353 1467.5 922.575L1474.1 951.25L1468.52 954.19ZM1475.92 956.024L1481.96 967.468L1477.47 969.836L1471.43 958.392L1475.92 956.024ZM1488.43 930.046C1485.35 940.962 1486.26 952.456 1491 962.699L1486.45 965.099L1479.43 951.792L1471.53 917.476C1471.39 916.836 1471.01 916.312 1470.51 915.964C1469.75 915.142 1468.5 914.896 1467.47 915.444C1465.32 916.579 1464.49 917.904 1463.88 918.872C1463.42 919.605 1463.17 920.008 1462.22 920.506C1461.28 921.005 1460.8 920.986 1459.94 920.951C1458.8 920.906 1457.24 920.843 1455.08 921.979C1452.93 923.114 1452.1 924.439 1451.5 925.407C1451.04 926.139 1450.79 926.543 1449.84 927.041C1448.9 927.539 1448.42 927.52 1447.56 927.485C1446.42 927.44 1444.86 927.377 1442.7 928.512C1441.67 929.06 1441.17 930.226 1441.42 931.319C1441.42 931.927 1441.64 932.535 1442.09 933.017L1465.96 958.898L1472.99 972.205L1468.44 974.605C1462.69 965.006 1453.64 957.734 1442.72 953.992C1434.16 951.059 1427.11 945.04 1422.87 937.046C1413.74 919.83 1420.27 898.322 1437.43 889.102C1445.85 884.585 1455.49 883.633 1464.62 886.417C1473.74 889.2 1481.21 895.378 1485.67 903.813C1489.94 911.916 1490.92 921.232 1488.43 930.046Z" fill="#515050" fill-opacity="0.06"/>
<path d="M1468.26 893.371C1462.85 890.577 1456.82 889.46 1450.79 890.141C1449.4 890.299 1448.4 891.555 1448.56 892.948C1448.72 894.34 1449.97 895.341 1451.36 895.183C1461.68 894.017 1471.85 899.388 1476.69 908.55C1477.34 909.789 1478.88 910.264 1480.12 909.61C1481.36 908.955 1481.83 907.421 1481.18 906.181C1478.26 900.663 1473.8 896.233 1468.26 893.371Z" fill="#515050" fill-opacity="0.06"/>
<path d="M1440.04 893.466C1440.04 893.467 1440.03 893.468 1440.03 893.47L1439.84 893.569C1438.61 894.227 1438.14 895.764 1438.8 897.001C1439.45 898.235 1440.98 898.705 1442.22 898.053C1442.22 898.051 1442.23 898.05 1442.23 898.048L1442.41 897.949C1443.65 897.291 1444.12 895.754 1443.46 894.518C1442.81 893.283 1441.27 892.813 1440.04 893.466Z" fill="#515050" fill-opacity="0.06"/>
<path d="M225.699 116.022C215.273 112.842 204.23 113.931 194.636 119.091C175.018 129.629 167.552 154.209 177.992 173.883C182.841 183.021 190.899 189.899 200.681 193.251C211.193 196.854 219.756 204.092 224.797 213.645C224.836 213.718 228.068 219.816 228.068 219.816C229.536 222.597 232.992 223.665 235.773 222.197L237.451 221.312L239.526 225.244C240.994 228.025 244.451 229.094 247.232 227.626L255.096 223.476C257.877 222.008 258.946 218.551 257.478 215.77L255.403 211.838L257.08 210.952C259.861 209.485 260.93 206.028 259.462 203.247C259.462 203.247 256.244 197.123 256.206 197.051C251.126 187.425 249.959 176.357 252.919 165.885C255.766 155.812 254.643 145.165 249.756 135.904C244.668 126.264 236.124 119.203 225.699 116.022ZM252.99 218.139C253.152 218.445 253.034 218.826 252.727 218.988L244.863 223.139C244.557 223.3 244.176 223.183 244.014 222.876L241.939 218.944L250.914 214.207L252.99 218.139ZM254.712 206.465L233.405 217.71C233.099 217.871 232.718 217.754 232.556 217.447L230.48 213.515L252.898 201.684L254.974 205.616C255.135 205.922 255.018 206.303 254.712 206.465ZM228.128 188.649L208.177 167.024C209.15 166.979 210.344 166.763 211.813 165.987C213.964 164.852 214.794 163.527 215.401 162.559C215.859 161.827 216.112 161.423 217.056 160.925C218 160.427 218.476 160.446 219.34 160.48C220.481 160.526 222.043 160.588 224.195 159.453C225.665 158.677 226.517 157.813 227.104 157.034L233.698 185.709L228.128 188.649ZM235.525 190.483L241.565 201.927L237.077 204.296L231.037 192.851L235.525 190.483ZM248.036 164.505C244.95 175.421 245.867 186.915 250.6 197.159L246.053 199.559L239.03 186.251L231.137 151.935C230.99 151.295 230.612 150.771 230.113 150.424C229.351 149.601 228.108 149.355 227.069 149.903C224.918 151.038 224.088 152.363 223.482 153.331C223.023 154.064 222.77 154.467 221.826 154.966C220.882 155.464 220.406 155.445 219.542 155.411C218.401 155.365 216.838 155.302 214.687 156.438C212.536 157.573 211.706 158.898 211.099 159.866C210.641 160.599 210.388 161.002 209.444 161.5C208.5 161.998 208.025 161.979 207.161 161.944C206.02 161.899 204.458 161.836 202.307 162.972C201.268 163.52 200.77 164.686 201.019 165.778C201.024 166.386 201.244 166.994 201.689 167.476L225.566 193.357L232.589 206.664L228.041 209.065C222.291 199.465 213.247 192.194 202.326 188.451C193.767 185.518 186.717 179.5 182.475 171.505C173.339 154.289 179.872 132.782 197.037 123.562C205.452 119.045 215.096 118.093 224.218 120.876C233.341 123.659 240.816 129.837 245.268 138.272C249.544 146.375 250.527 155.692 248.036 164.505Z" fill="#515050" fill-opacity="0.06"/>
<path d="M227.864 127.831C222.457 125.036 216.418 123.919 210.397 124.6C209.005 124.758 208.003 126.014 208.161 127.407C208.319 128.799 209.575 129.8 210.967 129.643C221.28 128.476 231.457 133.847 236.292 143.009C236.946 144.248 238.481 144.723 239.72 144.069C240.96 143.415 241.434 141.88 240.78 140.64C237.867 135.122 233.401 130.693 227.864 127.831Z" fill="#515050" fill-opacity="0.06"/>
<path d="M199.641 127.925C199.638 127.926 199.635 127.928 199.633 127.929L199.447 128.028C198.21 128.687 197.741 130.223 198.399 131.46C199.056 132.694 200.587 133.164 201.823 132.512C201.825 132.511 201.828 132.509 201.831 132.508L202.017 132.409C203.254 131.75 203.723 130.214 203.065 128.977C202.408 127.742 200.877 127.273 199.641 127.925Z" fill="#515050" fill-opacity="0.06"/>
<path d="M40.7557 869.924C42.4401 870.001 44.1613 870.056 45.9038 870.056C47.6648 870.056 49.4043 870.019 51.1101 869.924C49.4043 872.129 47.7199 874.08 45.9375 875.939L45.962 875.914C44.1888 874.077 42.4861 872.123 40.8813 870.089L40.7557 869.924ZM23.3056 867.474C26.6223 868.316 30.6679 869.033 34.7961 869.474L35.1973 869.507C37.7239 872.977 40.278 876.031 43.0189 878.903L42.9853 878.866C38.9703 883.347 33.5527 886.495 27.4247 887.625L27.2562 887.65C27.244 887.65 27.2317 887.65 27.2195 887.65C26.46 887.65 25.7434 887.463 25.1156 887.132L25.1401 887.144C22.5921 885.69 21.4865 880.125 22.3471 872.974C22.5522 871.213 22.8891 869.36 23.3026 867.471L23.3056 867.474ZM68.5786 867.434C68.9399 868.886 69.2799 870.735 69.5218 872.616L69.5494 872.879C70.4283 880.027 69.3442 885.586 66.8176 887.071C66.2541 887.383 65.5804 887.567 64.8638 887.567C64.7933 887.567 64.7229 887.564 64.6524 887.561H64.6616C58.3743 886.412 52.9598 883.286 48.9541 878.86L48.9326 878.836C51.6246 876.009 54.1603 872.962 56.4848 869.756L56.6624 869.498C61.1826 869.027 65.2343 868.298 69.1819 867.302L68.5786 867.431V867.434ZM26.8857 856.005C27.6513 857.506 28.4537 859 29.3357 860.501C30.2156 861.993 31.115 863.451 32.0338 864.874C29.3755 864.485 26.8091 863.995 24.3561 863.398C25.0451 860.988 25.9087 858.492 26.8826 855.999L26.8857 856.005ZM64.9464 855.928C65.9601 858.443 66.8207 860.951 67.5343 863.382C65.0843 863.983 62.4964 864.491 59.8198 864.874C60.7386 863.438 61.6573 861.958 62.5179 860.442C63.3784 858.951 64.1839 857.426 64.9526 855.925L64.9464 855.928ZM20.2554 839.547C21.5906 844.073 23.0239 847.859 24.6929 851.509L24.4632 850.952C23.0361 854.03 21.6243 857.793 20.4667 861.667L20.3074 862.295C18.1453 861.631 16.4058 860.978 14.7122 860.246L15.0644 860.381C8.43719 857.561 4.14969 853.852 4.14969 850.912C4.14969 847.972 8.43719 844.245 15.0644 841.437C16.6722 840.748 18.4362 840.126 20.2554 839.547ZM71.5186 839.532C73.3714 840.104 75.1323 840.744 76.7799 841.437C83.4072 844.269 87.6947 847.972 87.6947 850.912C87.6763 853.852 83.3888 857.57 76.7616 860.384C75.1538 861.073 73.3928 861.692 71.5768 862.271C70.2293 857.729 68.796 853.947 67.1331 850.29L67.3658 850.866C68.7868 847.791 70.2017 844.027 71.3563 840.153L71.5186 839.523V839.532ZM59.7953 836.95C62.4566 837.345 65.0199 837.829 67.473 838.432C66.7839 840.852 65.9234 843.338 64.9464 845.831C64.1808 844.34 63.3784 842.836 62.4964 841.339C61.6359 839.838 60.7171 838.377 59.7984 836.953L59.7953 836.95ZM32.0123 836.95C31.0936 838.392 30.1748 839.869 29.3173 841.391C28.4567 842.882 27.6513 844.383 26.8857 845.883C25.872 843.372 25.0114 840.87 24.2979 838.432C26.7479 837.86 29.3296 837.348 32.0092 836.956L32.0123 836.95ZM45.9222 835.976C48.755 835.976 51.5756 836.105 54.3502 836.331C55.9039 838.559 57.4127 840.931 58.8766 843.449C60.2996 845.899 61.5981 848.381 62.7721 850.897C61.593 853.405 60.3006 855.91 58.8949 858.36C57.4403 860.886 55.9366 863.291 54.3778 865.517C51.5909 865.759 48.7672 865.891 45.9191 865.891C43.0863 865.891 40.2657 865.756 37.4911 865.535C35.9384 863.309 34.4225 860.926 32.9647 858.418C31.5417 855.968 30.2432 853.485 29.0692 850.97C30.2299 848.456 31.5407 845.945 32.9464 843.491C34.4011 840.965 35.9047 838.57 37.4636 836.344C40.2504 836.099 43.0741 835.97 45.9222 835.97V835.976ZM45.864 825.928C47.6402 827.766 49.343 829.716 50.9447 831.75L51.0672 831.912C49.3828 831.836 47.6617 831.784 45.9191 831.784C44.1582 831.784 42.4187 831.82 40.7129 831.912C42.4156 829.707 44.1 827.756 45.8854 825.897L45.8609 825.922L45.864 825.928ZM27.1797 814.254C33.467 815.405 38.8784 818.532 42.8872 822.954L42.9087 822.979C40.2167 825.809 37.681 828.856 35.3566 832.068L35.1789 832.326C30.6617 832.794 26.6101 833.517 22.6656 834.512L23.2658 834.384C22.8371 832.509 22.5186 830.693 22.295 828.951C21.4161 821.803 22.5002 816.244 25.0267 814.765C25.6576 814.468 26.3957 814.284 27.1736 814.26H27.1827L27.1797 814.254ZM64.5728 814.177V814.202C64.6126 814.202 64.6586 814.199 64.7076 814.199C65.4395 814.199 66.1286 814.379 66.7349 814.698L66.7104 814.686C69.2584 816.146 70.364 821.708 69.5034 828.862C69.2983 830.623 68.9614 832.479 68.5479 834.371C65.2251 833.52 61.1796 832.8 57.0513 832.362L56.6593 832.329C54.1297 828.856 51.5756 825.802 48.8346 822.927L48.8714 822.964C52.8863 818.492 58.2947 815.344 64.4105 814.208L64.582 814.18L64.5728 814.177ZM64.5912 810.006C57.1126 811.142 50.6384 814.774 45.9099 820.014L45.8854 820.042C41.1232 814.805 34.6491 811.197 27.3543 810.104L27.1827 810.083C27.1429 810.083 27.0939 810.083 27.0449 810.083C25.5413 810.083 24.1294 810.478 22.9075 811.17L22.9504 811.148C17.689 814.183 16.5099 823.64 19.2264 835.508C7.57662 839.106 0 844.857 0 850.918C0 857.003 7.61644 862.77 19.2999 866.341C16.6049 878.254 17.8084 887.726 23.0821 890.758C24.2397 891.423 25.6301 891.812 27.1093 891.812C27.1766 891.812 27.244 891.812 27.3083 891.809H27.2991C34.7777 890.672 41.2519 887.037 45.9804 881.794L46.0049 881.767C50.7671 887.007 57.2412 890.614 64.5361 891.708L64.7076 891.729C64.7535 891.729 64.8117 891.729 64.8668 891.729C66.3613 891.729 67.767 891.337 68.9828 890.654L68.9399 890.675C74.1983 887.644 75.3804 878.187 72.6639 866.316C84.2708 862.748 91.8474 856.985 91.8474 850.915C91.8474 844.83 84.231 839.063 72.5476 835.483C75.2426 823.582 74.039 814.101 68.7654 811.066C67.5955 810.395 66.1929 810 64.6984 810C64.6586 810 64.6187 810 64.5789 810H64.5851L64.5912 810.006ZM54.4574 850.918C54.4574 855.643 50.6262 859.475 45.9007 859.475C41.1753 859.475 37.3441 855.643 37.3441 850.918C37.3441 846.193 41.1753 842.361 45.9007 842.361C48.265 842.361 50.4026 843.32 51.9523 844.867C53.5019 846.416 54.4574 848.554 54.4574 850.918Z" fill="#515050" fill-opacity="0.06"/>
<path d="M1693.76 324.924C1695.44 325.001 1697.16 325.056 1698.9 325.056C1700.66 325.056 1702.4 325.019 1704.11 324.924C1702.4 327.129 1700.72 329.08 1698.94 330.939L1698.96 330.914C1697.19 329.077 1695.49 327.123 1693.88 325.089L1693.76 324.924ZM1676.31 322.474C1679.62 323.316 1683.67 324.033 1687.8 324.474L1688.2 324.507C1690.72 327.977 1693.28 331.031 1696.02 333.903L1695.99 333.866C1691.97 338.347 1686.55 341.495 1680.42 342.625L1680.26 342.65C1680.24 342.65 1680.23 342.65 1680.22 342.65C1679.46 342.65 1678.74 342.463 1678.12 342.132L1678.14 342.144C1675.59 340.69 1674.49 335.125 1675.35 327.974C1675.55 326.213 1675.89 324.36 1676.3 322.471L1676.31 322.474ZM1721.58 322.434C1721.94 323.886 1722.28 325.735 1722.52 327.616L1722.55 327.879C1723.43 335.027 1722.34 340.586 1719.82 342.071C1719.25 342.383 1718.58 342.567 1717.86 342.567C1717.79 342.567 1717.72 342.564 1717.65 342.561H1717.66C1711.37 341.412 1705.96 338.286 1701.95 333.86L1701.93 333.836C1704.62 331.009 1707.16 327.962 1709.48 324.756L1709.66 324.498C1714.18 324.027 1718.23 323.298 1722.18 322.302L1721.58 322.431V322.434ZM1679.89 311.005C1680.65 312.506 1681.45 314 1682.34 315.501C1683.22 316.993 1684.12 318.451 1685.03 319.874C1682.38 319.485 1679.81 318.995 1677.36 318.398C1678.05 315.988 1678.91 313.492 1679.88 310.999L1679.89 311.005ZM1717.95 310.928C1718.96 313.443 1719.82 315.951 1720.53 318.382C1718.08 318.983 1715.5 319.491 1712.82 319.874C1713.74 318.438 1714.66 316.958 1715.52 315.442C1716.38 313.951 1717.18 312.426 1717.95 310.925L1717.95 310.928ZM1673.26 294.547C1674.59 299.073 1676.02 302.859 1677.69 306.509L1677.46 305.952C1676.04 309.03 1674.62 312.793 1673.47 316.667L1673.31 317.295C1671.15 316.631 1669.41 315.978 1667.71 315.246L1668.06 315.381C1661.44 312.561 1657.15 308.852 1657.15 305.912C1657.15 302.972 1661.44 299.245 1668.06 296.437C1669.67 295.748 1671.44 295.126 1673.26 294.547ZM1724.52 294.532C1726.37 295.104 1728.13 295.744 1729.78 296.437C1736.41 299.269 1740.69 302.972 1740.69 305.912C1740.68 308.852 1736.39 312.57 1729.76 315.384C1728.15 316.073 1726.39 316.692 1724.58 317.271C1723.23 312.729 1721.8 308.947 1720.13 305.29L1720.37 305.866C1721.79 302.791 1723.2 299.027 1724.36 295.153L1724.52 294.523V294.532ZM1712.8 291.95C1715.46 292.345 1718.02 292.829 1720.47 293.432C1719.78 295.852 1718.92 298.338 1717.95 300.831C1717.18 299.34 1716.38 297.836 1715.5 296.339C1714.64 294.838 1713.72 293.377 1712.8 291.953L1712.8 291.95ZM1685.01 291.95C1684.09 293.392 1683.17 294.869 1682.32 296.391C1681.46 297.882 1680.65 299.383 1679.89 300.883C1678.87 298.372 1678.01 295.87 1677.3 293.432C1679.75 292.86 1682.33 292.348 1685.01 291.956L1685.01 291.95ZM1698.92 290.976C1701.75 290.976 1704.58 291.105 1707.35 291.331C1708.9 293.559 1710.41 295.931 1711.88 298.449C1713.3 300.899 1714.6 303.381 1715.77 305.897C1714.59 308.405 1713.3 310.91 1711.89 313.36C1710.44 315.886 1708.94 318.291 1707.38 320.517C1704.59 320.759 1701.77 320.891 1698.92 320.891C1696.09 320.891 1693.27 320.756 1690.49 320.535C1688.94 318.309 1687.42 315.926 1685.96 313.418C1684.54 310.968 1683.24 308.485 1682.07 305.97C1683.23 303.456 1684.54 300.945 1685.95 298.491C1687.4 295.965 1688.9 293.57 1690.46 291.344C1693.25 291.099 1696.07 290.97 1698.92 290.97V290.976ZM1698.86 280.928C1700.64 282.766 1702.34 284.716 1703.94 286.75L1704.07 286.912C1702.38 286.836 1700.66 286.784 1698.92 286.784C1697.16 286.784 1695.42 286.82 1693.71 286.912C1695.42 284.707 1697.1 282.756 1698.89 280.897L1698.86 280.922L1698.86 280.928ZM1680.18 269.254C1686.47 270.405 1691.88 273.532 1695.89 277.954L1695.91 277.979C1693.22 280.809 1690.68 283.856 1688.36 287.068L1688.18 287.326C1683.66 287.794 1679.61 288.517 1675.67 289.512L1676.27 289.384C1675.84 287.509 1675.52 285.693 1675.29 283.951C1674.42 276.803 1675.5 271.244 1678.03 269.765C1678.66 269.468 1679.4 269.284 1680.17 269.26H1680.18L1680.18 269.254ZM1717.57 269.177V269.202C1717.61 269.202 1717.66 269.199 1717.71 269.199C1718.44 269.199 1719.13 269.379 1719.73 269.698L1719.71 269.686C1722.26 271.146 1723.36 276.708 1722.5 283.862C1722.3 285.623 1721.96 287.479 1721.55 289.371C1718.23 288.52 1714.18 287.8 1710.05 287.362L1709.66 287.329C1707.13 283.856 1704.58 280.802 1701.83 277.927L1701.87 277.964C1705.89 273.492 1711.29 270.344 1717.41 269.208L1717.58 269.18L1717.57 269.177ZM1717.59 265.006C1710.11 266.142 1703.64 269.774 1698.91 275.014L1698.89 275.042C1694.12 269.805 1687.65 266.197 1680.35 265.104L1680.18 265.083C1680.14 265.083 1680.09 265.083 1680.04 265.083C1678.54 265.083 1677.13 265.478 1675.91 266.17L1675.95 266.148C1670.69 269.183 1669.51 278.64 1672.23 290.508C1660.58 294.106 1653 299.857 1653 305.918C1653 312.003 1660.62 317.77 1672.3 321.341C1669.6 333.254 1670.81 342.726 1676.08 345.758C1677.24 346.423 1678.63 346.812 1680.11 346.812C1680.18 346.812 1680.24 346.812 1680.31 346.809H1680.3C1687.78 345.672 1694.25 342.037 1698.98 336.794L1699 336.767C1703.77 342.007 1710.24 345.614 1717.54 346.708L1717.71 346.729C1717.75 346.729 1717.81 346.729 1717.87 346.729C1719.36 346.729 1720.77 346.337 1721.98 345.654L1721.94 345.675C1727.2 342.644 1728.38 333.187 1725.66 321.316C1737.27 317.748 1744.85 311.985 1744.85 305.915C1744.85 299.83 1737.23 294.063 1725.55 290.483C1728.24 278.582 1727.04 269.101 1721.77 266.066C1720.6 265.395 1719.19 265 1717.7 265C1717.66 265 1717.62 265 1717.58 265H1717.59L1717.59 265.006ZM1707.46 305.918C1707.46 310.643 1703.63 314.475 1698.9 314.475C1694.18 314.475 1690.34 310.643 1690.34 305.918C1690.34 301.193 1694.18 297.361 1698.9 297.361C1701.26 297.361 1703.4 298.32 1704.95 299.867C1706.5 301.416 1707.46 303.554 1707.46 305.918Z" fill="#515050" fill-opacity="0.06"/>
<path d="M-8.24425 140.924C-6.55988 141.001 -4.83875 141.056 -3.09619 141.056C-1.33525 141.056 0.404253 141.019 2.11007 140.924C0.404253 143.129 -1.28013 145.08 -3.0625 146.939L-3.038 146.914C-4.81119 145.077 -6.51394 143.123 -8.11869 141.089L-8.24425 140.924ZM-25.6944 138.474C-22.3777 139.316 -18.3321 140.033 -14.2039 140.474L-13.8027 140.507C-11.2761 143.977 -8.722 147.031 -5.98106 149.903L-6.01475 149.866C-10.0297 154.347 -15.4473 157.495 -21.5753 158.625L-21.7438 158.65C-21.756 158.65 -21.7683 158.65 -21.7805 158.65C-22.54 158.65 -23.2566 158.463 -23.8844 158.132L-23.8599 158.144C-26.4079 156.69 -27.5135 151.125 -26.6529 143.974C-26.4478 142.213 -26.1109 140.36 -25.6974 138.471L-25.6944 138.474ZM19.5786 138.434C19.9399 139.886 20.2799 141.735 20.5218 143.616L20.5494 143.879C21.4283 151.027 20.3442 156.586 17.8176 158.071C17.2541 158.383 16.5804 158.567 15.8638 158.567C15.7933 158.567 15.7229 158.564 15.6524 158.561H15.6616C9.37431 157.412 3.95981 154.286 -0.0459386 149.86L-0.067376 149.836C2.62456 147.009 5.16031 143.962 7.48475 140.756L7.66238 140.498C12.1826 140.027 16.2343 139.298 20.1819 138.302L19.5786 138.431V138.434ZM-22.1143 127.005C-21.3487 128.506 -20.5463 130 -19.6643 131.501C-18.7844 132.993 -17.885 134.451 -16.9662 135.874C-19.6245 135.485 -22.1909 134.995 -24.6439 134.398C-23.9549 131.988 -23.0913 129.492 -22.1174 126.999L-22.1143 127.005ZM15.9464 126.928C16.9601 129.443 17.8207 131.951 18.5343 134.382C16.0843 134.983 13.4964 135.491 10.8198 135.874C11.7386 134.438 12.6573 132.958 13.5179 131.442C14.3784 129.951 15.1839 128.426 15.9526 126.925L15.9464 126.928ZM-28.7446 110.547C-27.4094 115.073 -25.9761 118.859 -24.3071 122.509L-24.5368 121.952C-25.9639 125.03 -27.3757 128.793 -28.5333 132.667L-28.6926 133.295C-30.8547 132.631 -32.5942 131.978 -34.2878 131.246L-33.9356 131.381C-40.5628 128.561 -44.8503 124.852 -44.8503 121.912C-44.8503 118.972 -40.5628 115.245 -33.9356 112.437C-32.3278 111.748 -30.5638 111.126 -28.7446 110.547ZM22.5186 110.532C24.3714 111.104 26.1323 111.744 27.7799 112.437C34.4072 115.269 38.6947 118.972 38.6947 121.912C38.6763 124.852 34.3888 128.57 27.7616 131.384C26.1538 132.073 24.3928 132.692 22.5768 133.271C21.2293 128.729 19.796 124.947 18.1331 121.29L18.3658 121.866C19.7868 118.791 21.2017 115.027 22.3563 111.153L22.5186 110.523V110.532ZM10.7953 107.95C13.4566 108.345 16.0199 108.829 18.473 109.432C17.7839 111.852 16.9234 114.338 15.9464 116.831C15.1808 115.34 14.3784 113.836 13.4964 112.339C12.6359 110.838 11.7171 109.377 10.7984 107.953L10.7953 107.95ZM-16.9877 107.95C-17.9064 109.392 -18.8252 110.869 -19.6827 112.391C-20.5433 113.882 -21.3487 115.383 -22.1143 116.883C-23.128 114.372 -23.9886 111.87 -24.7021 109.432C-22.2521 108.86 -19.6704 108.348 -16.9908 107.956L-16.9877 107.95ZM-3.07781 106.976C-0.245 106.976 2.57557 107.105 5.35019 107.331C6.9039 109.559 8.41269 111.931 9.87656 114.449C11.2996 116.899 12.5981 119.381 13.7721 121.897C12.593 124.405 11.3006 126.91 9.89494 129.36C8.44025 131.886 6.93656 134.291 5.37775 136.517C2.59088 136.759 -0.232752 136.891 -3.08088 136.891C-5.91369 136.891 -8.73425 136.756 -11.5089 136.535C-13.0616 134.309 -14.5775 131.926 -16.0353 129.418C-17.4583 126.968 -18.7568 124.485 -19.9308 121.97C-18.7701 119.456 -17.4593 116.945 -16.0536 114.491C-14.5989 111.965 -13.0953 109.57 -11.5364 107.344C-8.74956 107.099 -5.92594 106.97 -3.07781 106.97V106.976ZM-3.136 96.9281C-1.35975 98.7656 0.343001 100.716 1.94469 102.75L2.06719 102.912C0.382816 102.836 -1.33831 102.784 -3.08088 102.784C-4.84181 102.784 -6.58131 102.82 -8.28713 102.912C-6.58438 100.707 -4.9 98.7564 -3.11456 96.8974L-3.13906 96.9219L-3.136 96.9281ZM-21.8203 85.2538C-15.533 86.4053 -10.1216 89.5321 -6.11275 93.9544L-6.09131 93.9789C-8.78325 96.8086 -11.319 99.8558 -13.6434 103.068L-13.8211 103.326C-18.3383 103.794 -22.3899 104.517 -26.3344 105.512L-25.7342 105.384C-26.1629 103.509 -26.4814 101.693 -26.705 99.9507C-27.5839 92.8029 -26.4998 87.2444 -23.9733 85.7652C-23.3424 85.4682 -22.6043 85.2844 -21.8264 85.2599H-21.8173L-21.8203 85.2538ZM15.5728 85.1772V85.2017C15.6126 85.2017 15.6586 85.1987 15.7076 85.1987C16.4395 85.1987 17.1286 85.3794 17.7349 85.6979L17.7104 85.6856C20.2584 87.1464 21.364 92.7079 20.5034 99.8619C20.2983 101.623 19.9614 103.479 19.5479 105.371C16.2251 104.52 12.1796 103.8 8.05132 103.362L7.65932 103.329C5.12969 99.8558 2.57556 96.8025 -0.165375 93.9268L-0.128627 93.9636C3.88631 89.4923 9.29469 86.3441 15.4105 85.2079L15.582 85.1803L15.5728 85.1772ZM15.5912 81.0061C8.11257 82.1423 1.63844 85.7744 -3.09006 91.0144L-3.11456 91.0419C-7.87675 85.8051 -14.3509 82.1974 -21.6457 81.1041L-21.8173 81.0827C-21.8571 81.0827 -21.9061 81.0827 -21.9551 81.0827C-23.4587 81.0827 -24.8706 81.4777 -26.0925 82.1699L-26.0496 82.1484C-31.311 85.1834 -32.4901 94.6404 -29.7736 106.508C-41.4234 110.106 -49 115.857 -49 121.918C-49 128.003 -41.3836 133.77 -29.7001 137.341C-32.3951 149.254 -31.1916 158.726 -25.9179 161.758C-24.7603 162.423 -23.3699 162.812 -21.8907 162.812C-21.8234 162.812 -21.756 162.812 -21.6917 162.809H-21.7009C-14.2223 161.672 -7.74813 158.037 -3.01963 152.794L-2.99512 152.767C1.76706 158.007 8.24119 161.614 15.5361 162.708L15.7076 162.729C15.7535 162.729 15.8117 162.729 15.8668 162.729C17.3613 162.729 18.767 162.337 19.9828 161.654L19.9399 161.675C25.1983 158.644 26.3804 149.187 23.6639 137.316C35.2708 133.748 42.8474 127.985 42.8474 121.915C42.8474 115.83 35.231 110.063 23.5476 106.483C26.2426 94.5822 25.039 85.1007 19.7654 82.0658C18.5955 81.3951 17.1929 81 15.6984 81C15.6586 81 15.6187 81 15.5789 81H15.5851L15.5912 81.0061ZM5.45738 121.918C5.45738 126.643 1.62619 130.475 -3.09925 130.475C-7.82469 130.475 -11.6559 126.643 -11.6559 121.918C-11.6559 117.193 -7.82469 113.361 -3.09925 113.361C-0.735 113.361 1.40263 114.32 2.95225 115.867C4.50188 117.416 5.45738 119.554 5.45738 121.918Z" fill="#515050" fill-opacity="0.06"/>
<path d="M1467.97 619.865L1437.94 603.491V594.422L1467.97 578.14V588.793L1447.05 598.843L1467.97 609.272V619.865Z" stroke="#515050" stroke-opacity="0.06" stroke-width="4.15097"/>
<path d="M1473.1 625.595L1493.01 572.406H1499.3L1479.34 625.595H1473.1Z" stroke="#515050" stroke-opacity="0.06" stroke-width="4.15097"/>
<path d="M1506.03 619.865V609.272L1526.95 598.927L1506.03 588.662V578.136L1536.06 594.438V603.453L1506.03 619.865Z" stroke="#515050" stroke-opacity="0.06" stroke-width="4.15097"/>
<path d="M58.024 428.459L28 412.085V403.016L58.024 386.735V397.387L37.1028 407.437L58.024 417.866V428.459Z" stroke="#515050" stroke-opacity="0.06" stroke-width="4.15097"/>
<path d="M63.1522 434.189L83.0631 381H89.3534L69.3962 434.189H63.1522Z" stroke="#515050" stroke-opacity="0.06" stroke-width="4.15097"/>
<path d="M96.0899 428.459V417.866L117.007 407.521L96.0899 397.256V386.73L126.114 403.033V412.047L96.0899 428.459Z" stroke="#515050" stroke-opacity="0.06" stroke-width="4.15097"/>
<path fill-rule="evenodd" clip-rule="evenodd" d="M306.652 39.1581C315.911 36.2534 321.063 26.3923 318.158 17.1328C315.253 7.87334 305.392 2.72177 296.133 5.6265C286.873 8.53122 281.722 18.3923 284.627 27.6518C287.531 36.9113 297.392 42.0629 306.652 39.1581ZM312.57 18.886C314.506 25.0589 311.072 31.6331 304.899 33.5695C298.726 35.506 292.152 32.0715 290.215 25.8986C288.279 19.7257 291.713 13.1516 297.886 11.2151C304.059 9.27865 310.633 12.7131 312.57 18.886Z" fill="#515050" fill-opacity="0.06"/>
<path fill-rule="evenodd" clip-rule="evenodd" d="M261.395 31.869L263.148 37.4576C264.506 41.7838 268.899 44.3164 273.247 43.4455C273.922 44.3486 274.638 45.2143 275.391 46.0408C273.667 50.1992 275.377 55.0585 279.443 57.1826L284.634 59.8947C288.608 61.9702 293.44 60.7074 295.925 57.1119C297.328 57.3339 298.75 57.4714 300.185 57.5209C301.954 61.5869 306.542 63.7469 310.868 62.3898L316.457 60.6366C320.782 59.2798 323.314 54.8878 322.445 50.541C323.49 49.7596 324.485 48.9245 325.427 48.0406C329.453 49.3972 333.98 47.6628 336.009 43.7783L338.721 38.5869C340.75 34.7024 339.588 29.9962 336.175 27.466C336.362 26.1894 336.48 24.8973 336.524 23.5945C340.588 21.8247 342.745 17.2378 341.389 12.9133L339.636 7.32474C338.279 3.00027 333.888 0.468063 329.542 1.33642C328.681 0.185035 327.754 -0.905529 326.769 -1.93146C328.299 -6.02375 326.576 -10.7101 322.603 -12.7852L317.412 -15.4973C313.347 -17.6207 308.383 -16.2499 305.954 -12.4623C304.844 -12.608 303.722 -12.7011 302.593 -12.7396C300.824 -16.8028 296.237 -18.9604 291.913 -17.6039L286.324 -15.8508C281.999 -14.4939 279.466 -10.1013 280.336 -5.75426C279.32 -4.99425 278.352 -4.1833 277.433 -3.32646C273.221 -5.22585 268.208 -3.52957 266.041 0.617897L263.329 5.80931C261.163 9.95681 262.634 15.0409 266.599 17.4129C266.42 18.6576 266.307 19.9171 266.264 21.1863C262.198 22.9548 260.038 27.5432 261.395 31.869ZM297.337 -10.0976C296.853 -11.6408 295.209 -12.4995 293.666 -12.0153L288.077 -10.2622C286.534 -9.77802 285.675 -8.1345 286.159 -6.59127L286.495 -5.52191C286.912 -4.19311 286.326 -2.76759 285.166 -1.99656C283.364 -0.799005 281.721 0.583793 280.253 2.11676C279.29 3.12278 277.783 3.44806 276.549 2.8032L275.184 2.09032C273.751 1.34138 271.982 1.8964 271.233 3.32996L268.521 8.52139C267.772 9.95495 268.327 11.7242 269.76 12.4731L271.125 13.1861C272.359 13.8309 272.953 15.2533 272.677 16.6185C272.257 18.6998 272.061 20.8398 272.107 23.0039C272.137 24.3966 271.302 25.692 269.973 26.1089L268.902 26.445C267.358 26.9291 266.5 28.5728 266.984 30.1159L268.737 35.7045C269.221 37.2478 270.865 38.1063 272.408 37.6222L273.479 37.2862C274.808 36.8693 276.234 37.4558 277.005 38.6157C278.129 40.308 279.417 41.8606 280.839 43.2591C281.821 44.2243 282.131 45.7126 281.493 46.9328L280.915 48.0396C280.167 49.4731 280.722 51.2421 282.155 51.9913L287.347 54.7033C288.78 55.4521 290.549 54.8971 291.298 53.4636L291.765 52.5705C292.417 51.3217 293.863 50.7306 295.24 51.0276C297.44 51.5026 299.708 51.7266 302.003 51.6778C303.396 51.648 304.691 52.4834 305.108 53.8121L305.444 54.8834C305.928 56.4267 307.572 57.2853 309.115 56.8011L314.704 55.048C316.247 54.5638 317.106 52.9204 316.621 51.3771L316.286 50.308C315.869 48.979 316.456 47.5532 317.616 46.7823C319.42 45.5837 321.066 44.1994 322.535 42.6646C323.498 41.6587 325.005 41.3334 326.239 41.9784L326.866 42.3059C328.299 43.0548 330.069 42.4997 330.818 41.0663L333.53 35.8749C334.279 34.4411 333.724 32.6721 332.29 31.9232L331.663 31.5956C330.429 30.9507 329.835 29.5283 330.111 28.1631C330.531 26.0816 330.727 23.9416 330.681 21.7772C330.651 20.3848 331.486 19.0891 332.815 18.6722L333.883 18.3374C335.426 17.8533 336.284 16.2098 335.8 14.6665L334.047 9.0779C333.563 7.53488 331.92 6.67604 330.376 7.16018L329.309 7.49494C327.98 7.91185 326.554 7.32567 325.783 6.16546C324.512 4.2525 323.032 2.51729 321.385 0.982111C320.354 0.0216973 320.014 -1.503 320.666 -2.75153L321.131 -3.64203C321.88 -5.07556 321.325 -6.84483 319.891 -7.59376L314.7 -10.3059C313.266 -11.0548 311.497 -10.4997 310.748 -9.0662L310.172 -7.96241C309.534 -6.74221 308.135 -6.14655 306.782 -6.40096C304.821 -6.76984 302.809 -6.93989 300.777 -6.89612C299.384 -6.86614 298.088 -7.70142 297.671 -9.03053L297.337 -10.0976Z" fill="#515050" fill-opacity="0.06"/>
<path fill-rule="evenodd" clip-rule="evenodd" d="M311.652 473.158C320.911 470.253 326.063 460.392 323.158 451.133C320.253 441.873 310.392 436.722 301.133 439.626C291.873 442.531 286.722 452.392 289.627 461.652C292.531 470.911 302.392 476.063 311.652 473.158ZM317.57 452.886C319.506 459.059 316.072 465.633 309.899 467.57C303.726 469.506 297.152 466.072 295.215 459.899C293.279 453.726 296.713 447.152 302.886 445.215C309.059 443.279 315.633 446.713 317.57 452.886Z" fill="#515050" fill-opacity="0.06"/>
<path fill-rule="evenodd" clip-rule="evenodd" d="M266.395 465.869L268.148 471.458C269.506 475.784 273.899 478.316 278.247 477.445C278.922 478.349 279.638 479.214 280.391 480.041C278.667 484.199 280.377 489.059 284.443 491.183L289.634 493.895C293.608 495.97 298.44 494.707 300.925 491.112C302.328 491.334 303.75 491.471 305.185 491.521C306.954 495.587 311.542 497.747 315.868 496.39L321.457 494.637C325.782 493.28 328.314 488.888 327.445 484.541C328.49 483.76 329.485 482.924 330.427 482.041C334.453 483.397 338.98 481.663 341.009 477.778L343.721 472.587C345.75 468.702 344.588 463.996 341.175 461.466C341.362 460.189 341.48 458.897 341.524 457.594C345.588 455.825 347.745 451.238 346.389 446.913L344.636 441.325C343.279 437 338.888 434.468 334.542 435.336C333.681 434.185 332.754 433.094 331.769 432.069C333.299 427.976 331.576 423.29 327.603 421.215L322.412 418.503C318.347 416.379 313.383 417.75 310.954 421.538C309.844 421.392 308.722 421.299 307.593 421.26C305.824 417.197 301.237 415.04 296.913 416.396L291.324 418.149C286.999 419.506 284.466 423.899 285.336 428.246C284.32 429.006 283.352 429.817 282.433 430.674C278.221 428.774 273.208 430.47 271.041 434.618L268.329 439.809C266.163 443.957 267.634 449.041 271.599 451.413C271.42 452.658 271.307 453.917 271.264 455.186C267.198 456.955 265.038 461.543 266.395 465.869ZM302.337 423.902C301.853 422.359 300.209 421.501 298.666 421.985L293.077 423.738C291.534 424.222 290.675 425.865 291.159 427.409L291.495 428.478C291.912 429.807 291.326 431.232 290.166 432.003C288.364 433.201 286.721 434.584 285.253 436.117C284.29 437.123 282.783 437.448 281.549 436.803L280.184 436.09C278.751 435.341 276.982 435.896 276.233 437.33L273.521 442.521C272.772 443.955 273.327 445.724 274.76 446.473L276.125 447.186C277.359 447.831 277.953 449.253 277.677 450.618C277.257 452.7 277.061 454.84 277.107 457.004C277.137 458.397 276.302 459.692 274.973 460.109L273.902 460.445C272.358 460.929 271.5 462.573 271.984 464.116L273.737 469.704C274.221 471.248 275.865 472.106 277.408 471.622L278.479 471.286C279.808 470.869 281.234 471.456 282.005 472.616C283.129 474.308 284.417 475.861 285.839 477.259C286.821 478.224 287.131 479.713 286.493 480.933L285.915 482.04C285.167 483.473 285.722 485.242 287.155 485.991L292.347 488.703C293.78 489.452 295.549 488.897 296.298 487.464L296.765 486.57C297.417 485.322 298.863 484.731 300.24 485.028C302.44 485.503 304.708 485.727 307.003 485.678C308.396 485.648 309.691 486.483 310.108 487.812L310.444 488.883C310.928 490.427 312.572 491.285 314.115 490.801L319.704 489.048C321.247 488.564 322.106 486.92 321.621 485.377L321.286 484.308C320.869 482.979 321.456 481.553 322.616 480.782C324.42 479.584 326.066 478.199 327.535 476.665C328.498 475.659 330.005 475.333 331.239 475.978L331.866 476.306C333.299 477.055 335.069 476.5 335.818 475.066L338.53 469.875C339.279 468.441 338.724 466.672 337.29 465.923L336.663 465.596C335.429 464.951 334.835 463.528 335.111 462.163C335.531 460.082 335.727 457.942 335.681 455.777C335.651 454.385 336.486 453.089 337.815 452.672L338.883 452.337C340.426 451.853 341.284 450.21 340.8 448.667L339.047 443.078C338.563 441.535 336.92 440.676 335.376 441.16L334.309 441.495C332.98 441.912 331.554 441.326 330.783 440.165C329.512 438.253 328.032 436.517 326.385 434.982C325.354 434.022 325.014 432.497 325.666 431.248L326.131 430.358C326.88 428.924 326.325 427.155 324.891 426.406L319.7 423.694C318.266 422.945 316.497 423.5 315.748 424.934L315.172 426.038C314.534 427.258 313.135 427.853 311.782 427.599C309.821 427.23 307.809 427.06 305.777 427.104C304.384 427.134 303.088 426.299 302.671 424.969L302.337 423.902Z" fill="#515050" fill-opacity="0.06"/>
<path fill-rule="evenodd" clip-rule="evenodd" d="M1583.65 798.158C1592.91 795.253 1598.06 785.392 1595.16 776.133C1592.25 766.873 1582.39 761.722 1573.13 764.626C1563.87 767.531 1558.72 777.392 1561.63 786.652C1564.53 795.911 1574.39 801.063 1583.65 798.158ZM1589.57 777.886C1591.51 784.059 1588.07 790.633 1581.9 792.57C1575.73 794.506 1569.15 791.072 1567.22 784.899C1565.28 778.726 1568.71 772.152 1574.89 770.215C1581.06 768.279 1587.63 771.713 1589.57 777.886Z" fill="#515050" fill-opacity="0.06"/>
<path fill-rule="evenodd" clip-rule="evenodd" d="M1538.4 790.869L1540.15 796.458C1541.51 800.784 1545.9 803.316 1550.25 802.445C1550.92 803.349 1551.64 804.214 1552.39 805.041C1550.67 809.199 1552.38 814.059 1556.44 816.183L1561.63 818.895C1565.61 820.97 1570.44 819.707 1572.92 816.112C1574.33 816.334 1575.75 816.471 1577.19 816.521C1578.95 820.587 1583.54 822.747 1587.87 821.39L1593.46 819.637C1597.78 818.28 1600.31 813.888 1599.44 809.541C1600.49 808.76 1601.48 807.924 1602.43 807.041C1606.45 808.397 1610.98 806.663 1613.01 802.778L1615.72 797.587C1617.75 793.702 1616.59 788.996 1613.18 786.466C1613.36 785.189 1613.48 783.897 1613.52 782.594C1617.59 780.825 1619.75 776.238 1618.39 771.913L1616.64 766.325C1615.28 762 1610.89 759.468 1606.54 760.336C1605.68 759.185 1604.75 758.094 1603.77 757.069C1605.3 752.976 1603.58 748.29 1599.6 746.215L1594.41 743.503C1590.35 741.379 1585.38 742.75 1582.95 746.538C1581.84 746.392 1580.72 746.299 1579.59 746.26C1577.82 742.197 1573.24 740.04 1568.91 741.396L1563.32 743.149C1559 744.506 1556.47 748.899 1557.34 753.246C1556.32 754.006 1555.35 754.817 1554.43 755.674C1550.22 753.774 1545.21 755.47 1543.04 759.618L1540.33 764.809C1538.16 768.957 1539.63 774.041 1543.6 776.413C1543.42 777.658 1543.31 778.917 1543.26 780.186C1539.2 781.955 1537.04 786.543 1538.4 790.869ZM1574.34 748.902C1573.85 747.359 1572.21 746.501 1570.67 746.985L1565.08 748.738C1563.53 749.222 1562.68 750.865 1563.16 752.409L1563.49 753.478C1563.91 754.807 1563.33 756.232 1562.17 757.003C1560.36 758.201 1558.72 759.584 1557.25 761.117C1556.29 762.123 1554.78 762.448 1553.55 761.803L1552.18 761.09C1550.75 760.341 1548.98 760.896 1548.23 762.33L1545.52 767.521C1544.77 768.955 1545.33 770.724 1546.76 771.473L1548.13 772.186C1549.36 772.831 1549.95 774.253 1549.68 775.618C1549.26 777.7 1549.06 779.84 1549.11 782.004C1549.14 783.397 1548.3 784.692 1546.97 785.109L1545.9 785.445C1544.36 785.929 1543.5 787.573 1543.98 789.116L1545.74 794.704C1546.22 796.248 1547.86 797.106 1549.41 796.622L1550.48 796.286C1551.81 795.869 1553.23 796.456 1554 797.616C1555.13 799.308 1556.42 800.861 1557.84 802.259C1558.82 803.224 1559.13 804.713 1558.49 805.933L1557.92 807.04C1557.17 808.473 1557.72 810.242 1559.16 810.991L1564.35 813.703C1565.78 814.452 1567.55 813.897 1568.3 812.464L1568.76 811.57C1569.42 810.322 1570.86 809.731 1572.24 810.028C1574.44 810.503 1576.71 810.727 1579 810.678C1580.4 810.648 1581.69 811.483 1582.11 812.812L1582.44 813.883C1582.93 815.427 1584.57 816.285 1586.12 815.801L1591.7 814.048C1593.25 813.564 1594.11 811.92 1593.62 810.377L1593.29 809.308C1592.87 807.979 1593.46 806.553 1594.62 805.782C1596.42 804.584 1598.07 803.199 1599.53 801.665C1600.5 800.659 1602 800.333 1603.24 800.978L1603.87 801.306C1605.3 802.055 1607.07 801.5 1607.82 800.066L1610.53 794.875C1611.28 793.441 1610.72 791.672 1609.29 790.923L1608.66 790.596C1607.43 789.951 1606.84 788.528 1607.11 787.163C1607.53 785.082 1607.73 782.942 1607.68 780.777C1607.65 779.385 1608.49 778.089 1609.82 777.672L1610.88 777.337C1612.43 776.853 1613.28 775.21 1612.8 773.667L1611.05 768.078C1610.56 766.535 1608.92 765.676 1607.38 766.16L1606.31 766.495C1604.98 766.912 1603.55 766.326 1602.78 765.165C1601.51 763.253 1600.03 761.517 1598.38 759.982C1597.35 759.022 1597.01 757.497 1597.67 756.248L1598.13 755.358C1598.88 753.924 1598.32 752.155 1596.89 751.406L1591.7 748.694C1590.27 747.945 1588.5 748.5 1587.75 749.934L1587.17 751.038C1586.53 752.258 1585.14 752.853 1583.78 752.599C1581.82 752.23 1579.81 752.06 1577.78 752.104C1576.38 752.134 1575.09 751.299 1574.67 749.969L1574.34 748.902Z" fill="#515050" fill-opacity="0.06"/>
<path d="M1715.02 99.4592L1685 83.085V74.016L1715.02 57.7346V68.3868L1694.1 78.4368L1715.02 88.8659V99.4592Z" stroke="#515050" stroke-opacity="0.06" stroke-width="4.15097"/>
<path d="M1720.15 105.189L1740.06 52H1746.35L1726.4 105.189H1720.15Z" stroke="#515050" stroke-opacity="0.06" stroke-width="4.15097"/>
<path d="M1774.32 885.411C1773.73 885.132 1773.06 885.016 1772.37 885.108L1772.36 885.111L1761.53 887.78L1758.94 876.796C1758.78 876.1 1758.35 875.542 1757.79 875.194C1757.23 874.848 1756.55 874.713 1755.86 874.875C1755.85 874.877 1755.84 874.88 1755.83 874.883C1754.82 875.036 1753.65 875.261 1752.49 875.535C1740.78 878.299 1731.24 885.443 1725.21 894.827L1725.22 894.81C1715.65 889.121 1703.93 886.989 1692.21 889.752C1691.05 890.026 1689.91 890.346 1688.79 890.705L1688.94 890.66C1688.25 890.842 1687.69 891.264 1687.32 891.813C1686.98 892.375 1686.84 893.068 1687 893.764L1689.6 904.748L1678.72 907.196C1678.71 907.199 1678.7 907.202 1678.69 907.205C1678 907.367 1677.45 907.79 1677.1 908.344C1676.75 908.908 1676.61 909.604 1676.78 910.304L1695.72 990.6C1696.05 991.985 1697.44 992.84 1698.82 992.513C1699.26 992.411 1699.64 992.204 1699.95 991.926L1699.94 991.936C1705.42 986.655 1712.56 982.612 1720.75 980.679C1728.93 978.75 1737.11 979.169 1744.58 981.495L1744.35 981.429C1744.57 981.497 1744.82 981.535 1745.07 981.532L1745.09 981.532C1745.19 981.533 1745.3 981.528 1745.41 981.511L1745.42 981.51L1745.43 981.506L1745.67 981.465L1745.71 981.442C1746.14 981.336 1746.53 981.122 1746.83 980.837L1746.82 980.847C1752.3 975.586 1759.43 971.559 1767.6 969.63C1775.79 967.697 1783.99 968.119 1791.48 970.459L1791.25 970.394C1791.64 970.507 1792.07 970.525 1792.51 970.422C1792.98 970.31 1793.4 970.068 1793.72 969.745L1793.71 969.754C1794.34 969.136 1794.64 968.225 1794.42 967.318L1775.48 887.022C1775.32 886.327 1774.88 885.761 1774.31 885.415L1774.32 885.411ZM1692.63 895.141C1693.18 894.98 1693.83 894.81 1694.48 894.656C1705 892.176 1715.52 894.448 1723.8 900.081L1723.83 900.102L1741.06 973.161C1732.2 969.022 1721.8 967.71 1711.41 970.161C1711.05 970.246 1710.69 970.333 1710.34 970.428L1710.39 970.415L1692.63 895.141ZM1699.79 985.376L1682.4 911.654L1690.79 909.765L1705.95 974.058C1706.28 975.44 1707.67 976.3 1709.05 975.977C1709.34 975.901 1709.69 975.815 1710.04 975.733C1716.17 974.286 1722.31 973.926 1728.25 974.53L1727.85 974.505C1725.31 974.645 1722.44 975.06 1719.57 975.737C1711.98 977.528 1705.21 980.959 1699.54 985.567L1699.8 985.372L1699.79 985.376ZM1728.84 898.915C1733.75 890.146 1742.15 883.407 1752.66 880.927C1753.31 880.773 1753.97 880.636 1754.62 880.518L1754.53 880.536L1772.29 955.807C1771.98 955.872 1771.62 955.953 1771.26 956.037C1760.87 958.488 1752.16 964.31 1746 972.066L1746.08 971.974L1728.84 898.915ZM1788.45 964.46C1781.64 962.971 1774.04 962.926 1766.45 964.657L1766.43 964.662C1763.57 965.337 1760.83 966.254 1758.23 967.387L1758.5 967.277C1763.2 964.283 1768.85 961.859 1774.99 960.41C1775.33 960.329 1775.68 960.25 1776.03 960.176L1775.98 960.188C1777.36 959.859 1778.21 958.474 1777.89 957.089L1762.72 892.795L1771.06 890.738L1788.45 964.46Z" fill="#515050" fill-opacity="0.06"/>
</g>
<defs>
<clipPath id="clip0_210_97">
<rect width="1720" height="1020" fill="white"/>
</clipPath>
</defs>
</svg>
